<?xml version="1.0" encoding="UTF-8"?><svg id="Layer_1" xmlns="http://www.w3.org/2000/svg" width="154" height="57" viewBox="0 0 154 57"><defs><style>.cls-1{fill:#010101;}.cls-2{fill:#f15a2c;}.cls-3{fill:#f1592b;}.cls-4{fill:#35944a;}.cls-5{font-size:4.43px;}.cls-5,.cls-6{fill:#fff;font-family:Rockwell-Regular, Rockwell;}.cls-6{font-size:4.22px;}</style></defs><polygon class="cls-1" points="15.95 15.06 38.19 2.39 71.49 27.09 37.87 4.84 15.95 15.06"/><polygon class="cls-1" points="5.29 19.81 5.29 36.28 3.28 36.28 3.28 38.29 17.25 38.29 17.25 33.62 14.92 33.67 14.97 36.12 7.52 36.17 7.58 29.05 10.57 29.05 10.57 31.44 12.63 31.44 12.74 24.32 10.51 24.37 10.51 26.77 7.52 26.77 7.52 19.81 15.02 19.81 15.02 22.31 17.25 22.25 17.25 17.52 3.28 17.52 3.28 19.75 5.29 19.81"/><path class="cls-1" d="m28.71,36.83c0-1.21-.01-1.7-.02-2.91.02-.28.04-1.05,0-1.23-.3-1.59-2.42-1.89-2.55-1.91,1.98-.98,3.11-3.29,2.42-5.08-.5-1.31-1.84-2.23-3.4-2.38l-6.67-.14v1.53l1.45.06v11.89h-1.45v1.65h4.63v-1.63l-1.55.02.05-5.17h2.81c.28,0,.68-.02,1.05.2,1.7,1,1.61,1.08,1.66,1.38v5.2h3.03v-1.53l-1.45.05Zm-7.04-6.93v-5.07c1.09.03,2.19.06,3.28.09,1.18.2,2.08,1.1,2.21,2.15.16,1.3-.88,2.65-2.41,2.83h-3.08Z"/><polygon class="cls-1" points="31.5 23.18 31.5 24.83 32.93 24.83 32.87 36.64 31.5 36.64 31.5 38.31 36.03 38.31 36.03 36.74 34.58 36.7 34.68 24.83 36.12 24.83 36.12 23.18 31.5 23.18"/><path class="cls-3" d="m45.06,30.05c-1.27-1.15-2.8-1.14-3.22-1.13-.42,0-1.87.06-3.08,1.17-1.64,1.5-1.46,3.67-1.44,3.93,0,0,.2,2.31,2.01,3.54,1.02.7,2.12.73,2.58.76.57.03,1.57.07,2.52-.49.15-.1.3-.21.46-.33.58-.46,1.02-.95,1.35-1.4l-1.5-.56c-.12.15-1.18,1.39-2.84,1.31-.44-.02-1.58-.16-2.35-1.14-.55-.7-.62-1.47-.63-1.77l7.58.08s.21-2.46-1.46-3.97Zm-5.93,2.34c.07-.26.33-1.04,1.1-1.56,1.2-.81,2.56-.27,2.75-.19,1.16.48,1.61,1.52,1.71,1.75h-5.56Z"/><polygon class="cls-2" points="49.28 24.81 49.21 36.73 47.86 36.73 47.86 38.33 52.29 38.33 52.29 36.69 50.93 36.71 50.89 26.66 57.85 38.33 59.49 38.33 59.37 24.81 60.86 24.81 60.86 23.15 56.36 23.15 56.43 24.85 57.77 24.87 57.81 34.88 50.74 23.15 47.86 23.15 47.86 24.77 49.28 24.81"/><path class="cls-4" d="m14.72,44.68c-.27-.21-.38-.53-.28-.83.05-.16.17-.27.29-.37.04-.03.09-.05.09-.11h.01c-.02-.1-.06-.18-.08-.27-.02-.08-.09-.11-.17-.1-.33.02-.75-.21-.77-.68,0-.1,0-.2.06-.29.03-.05.03-.13-.04-.18-.03-.02-.06-.04-.09-.06-.05-.04-.1-.09-.17-.1-.08,0-.11.06-.16.09-.46.26-.92.1-1.1-.36,0-.02,0-.05,0-.07-.02-.07-.06-.12-.15-.11-.06,0-.13,0-.19,0-.1,0-.14.04-.17.13-.13.5-.73.7-1.13.38-.1-.08-.13-.09-.26,0-.13.09-.22.15-.15.35.09.29.01.57-.25.77-.14.11-.3.16-.48.14-.08-.01-.13.02-.16.1-.02.05-.04.1-.06.16-.04.12-.04.15.08.24.42.32.44.92,0,1.19-.1.06-.11.1-.07.22.01.04.02.08.03.12.04.11.07.15.2.15.32-.01.65.2.73.55.03.14.03.29-.03.43-.04.08-.03.15.05.2.02.01.04.02.06.03.18.13.17.12.37.01.42-.22.92-.12,1.09.43,0,0,0,0,0,0,.06.19.22.11.35.12.09,0,.14-.04.16-.14.05-.31.46-.58.78-.53.14.02.27.06.37.17.06.06.12.06.19.01.06-.04.11-.08.17-.12.08-.06.07-.12.05-.19-.12-.39.02-.75.38-.93.1-.05.22-.06.34-.05.09,0,.15-.02.17-.12,0-.04.03-.07.04-.11.05-.14.04-.17-.08-.26Zm-1.12-.38c-.14,1.05-1.26,1.61-2.15,1.22-1-.44-1.26-1.73-.49-2.52.27-.27.59-.42.96-.46h.01c.17,0,.35,0,.52.04.74.19,1.26.93,1.15,1.72Z"/><path class="cls-2" d="m7.91,42.18v-.53h.61v1.54h-.62c-.16-.31-.37-.55-.65-.72s-.57-.26-.9-.26-.6.08-.85.25c-.25.17-.44.39-.58.67-.14.28-.21.58-.21.9s.07.64.22.92.35.5.6.67c.25.17.54.25.85.25.38,0,.72-.12,1.02-.35.3-.23.51-.57.65-1l.61.32c-.17.54-.46.95-.88,1.24-.42.29-.91.44-1.48.44-.47,0-.88-.11-1.24-.33-.36-.22-.64-.52-.84-.9s-.3-.79-.3-1.23c0-.49.1-.92.31-1.3.2-.38.49-.67.85-.88.36-.21.77-.31,1.24-.31.31,0,.6.05.86.16.26.1.51.25.73.45Z"/><path class="cls-2" d="m18.48,42.25h-.68v-.6h1.97v.6h-.7v4.25h-.75l-2.3-4.1v3.45h.69v.6h-1.97v-.6h.68v-3.6h-.68v-.6h1.64l2.11,3.73v-3.13Z"/><path class="cls-2" d="m22.62,41.95v-.33h.59v1.46h-.59v-.33c-.25-.37-.59-.56-1.02-.56-.26,0-.47.05-.61.16-.14.11-.21.26-.21.46s.07.34.2.44c.13.1.34.18.61.25l.56.15c.36.1.63.22.83.38.19.16.32.32.38.5.06.18.09.37.09.59,0,.44-.14.78-.41,1.04-.27.25-.64.38-1.09.38s-.83-.16-1.19-.48v.4h-.6v-1.75h.6v.42c.29.53.66.79,1.12.79.27,0,.48-.07.63-.21s.22-.33.22-.59c0-.34-.24-.58-.73-.72l-.6-.17c-.43-.12-.75-.29-.96-.5s-.31-.49-.31-.83c0-.42.12-.75.37-.98.25-.23.59-.35,1.03-.35.38,0,.74.13,1.07.38Z"/><path class="cls-2" d="m27.18,43.41v-1.16h-.99v3.6h.62v.6h-1.96v-.6h.61v-3.6h-.98v1.16h-.59v-1.76h3.89v1.76h-.59Z"/><path class="cls-2" d="m31.8,42.91c0,.31-.09.57-.26.78-.17.21-.42.35-.73.43l.85,1.74h.59v.6h-1.08l-1.06-2.24h-.67v1.64h.61v.6h-1.99v-.6h.65v-3.6h-.65v-.6h1.99c.62,0,1.06.1,1.34.3.27.2.41.52.41.96Zm-.75-.01c0-.22-.07-.39-.21-.49-.14-.1-.36-.16-.67-.16h-.74v1.36h.7c.31,0,.54-.05.69-.16.15-.11.23-.29.23-.55Z"/><path class="cls-2" d="m33.78,42.25v2.45c0,.43.08.75.25.95.16.2.41.3.72.3s.57-.1.74-.3c.17-.2.25-.51.25-.94v-2.45h-.56v-.6h1.88v.6h-.6v2.52c0,.57-.14,1.01-.43,1.31s-.72.45-1.28.45-.99-.15-1.27-.45c-.28-.3-.43-.75-.43-1.36v-2.48h-.59v-.6h1.89v.6h-.57Z"/><path class="cls-2" d="m41.52,42.18v-.53h.61v1.54h-.62c-.16-.31-.37-.55-.65-.72s-.57-.26-.9-.26-.6.08-.85.25c-.25.17-.44.39-.58.67-.14.28-.21.58-.21.9s.07.64.22.92.35.5.6.67c.25.17.54.25.85.25.38,0,.72-.12,1.02-.35.3-.23.51-.57.65-1l.61.32c-.17.54-.46.95-.88,1.24-.42.29-.91.44-1.48.44-.47,0-.88-.11-1.24-.33-.36-.22-.64-.52-.84-.9s-.3-.79-.3-1.23c0-.49.1-.92.31-1.3.2-.38.49-.67.85-.88.36-.21.77-.31,1.24-.31.31,0,.6.05.86.16.26.1.51.25.73.45Z"/><path class="cls-2" d="m46.09,43.41v-1.16h-.99v3.6h.62v.6h-1.96v-.6h.61v-3.6h-.98v1.16h-.59v-1.76h3.89v1.76h-.59Z"/><path class="cls-2" d="m48.35,42.25v3.6h.52v.6h-1.77v-.6h.52v-3.6h-.52v-.6h1.77v.6h-.52Z"/><path class="cls-2" d="m54.38,44.04c0,.49-.11.92-.32,1.3-.22.38-.51.67-.89.88s-.81.31-1.3.31-.9-.11-1.27-.32-.66-.51-.87-.9c-.21-.38-.31-.81-.31-1.29s.11-.9.32-1.27c.21-.37.5-.66.87-.87s.79-.31,1.27-.31.93.11,1.31.32c.38.22.67.51.88.88.21.37.31.79.31,1.26Zm-2.48,1.85c.33,0,.62-.09.88-.26s.46-.4.6-.68.21-.59.21-.91-.07-.63-.22-.92c-.15-.28-.36-.5-.62-.67-.26-.16-.56-.24-.89-.24s-.61.08-.86.24c-.25.16-.44.38-.58.65-.14.28-.21.59-.21.93,0,.36.07.68.21.97.14.28.33.5.59.66.26.16.56.24.9.24Z"/><path class="cls-2" d="m58.59,42.25h-.68v-.6h1.97v.6h-.7v4.25h-.75l-2.3-4.1v3.45h.69v.6h-1.97v-.6h.68v-3.6h-.68v-.6h1.64l2.11,3.73v-3.13Z"/><rect class="cls-2" x="3.92" y="48.87" width="27.13" height="4.61"/><text class="cls-5" transform="translate(6.38 52.6)"><tspan x="0" y="0">Plan Better</tspan></text><rect class="cls-1" x="31.5" y="48.87" width="27.13" height="4.61"/><text class="cls-6" transform="translate(32.24 52.66)"><tspan x="0" y="0">Build Better</tspan></text></svg>