<?xml version="1.0" encoding="UTF-8"?><svg id="Layer_1" xmlns="http://www.w3.org/2000/svg" width="58" height="56" viewBox="0 0 58 56"><defs><style>.cls-1{fill:#f0592a;}.cls-2{fill:#f0592b;}.cls-3{fill:#565656;}.cls-4{fill:#33924a;}.cls-5{font-size:3.31px;}.cls-5,.cls-6{fill:#fff;font-family:Rockwell-Regular, Rockwell;}.cls-6{font-size:3.15px;}</style></defs><polygon class="cls-3" points="13.33 20.93 29.92 11.48 54.76 29.9 29.68 13.31 13.33 20.93"/><polygon class="cls-3" points="5.39 24.47 5.39 36.76 3.89 36.76 3.89 38.26 14.31 38.26 14.31 34.77 12.56 34.81 12.6 36.64 7.05 36.68 7.09 31.37 9.32 31.37 9.32 33.15 10.86 33.15 10.94 27.84 9.28 27.88 9.28 29.66 7.05 29.66 7.05 24.47 12.64 24.47 12.64 26.34 14.31 26.3 14.31 22.77 3.89 22.77 3.89 24.43 5.39 24.47"/><path class="cls-3" d="m22.85,37.17c0-.9,0-1.27-.01-2.17.02-.21.03-.78,0-.92-.23-1.19-1.8-1.41-1.9-1.43,1.48-.73,2.32-2.45,1.8-3.79-.37-.98-1.38-1.66-2.54-1.77l-4.97-.1v1.14l1.08.05v8.87h-1.08v1.23h3.45v-1.22l-1.16.02.04-3.85h2.09c.21,0,.5-.01.78.15,1.27.74,1.2.8,1.24,1.03v3.88h2.26v-1.14l-1.08.04Zm-5.25-5.17v-3.78c.82.02,1.63.05,2.45.07.88.15,1.55.82,1.65,1.6.12.97-.66,1.98-1.8,2.11h-2.29Z"/><polygon class="cls-3" points="24.93 26.99 24.93 28.22 26 28.22 25.95 37.03 24.93 37.03 24.93 38.27 28.31 38.27 28.31 37.1 27.23 37.07 27.31 28.22 28.38 28.22 28.38 26.99 24.93 26.99"/><path class="cls-1" d="m35.05,32.11c-.95-.86-2.09-.85-2.4-.84-.31,0-1.39.04-2.3.87-1.22,1.12-1.09,2.74-1.07,2.93,0,0,.15,1.72,1.5,2.64.76.52,1.58.55,1.93.56.43.02,1.17.05,1.88-.36.11-.07.23-.16.34-.25.43-.34.76-.71,1.01-1.04l-1.12-.42c-.09.11-.88,1.04-2.12.98-.33-.02-1.18-.12-1.75-.85-.41-.53-.46-1.1-.47-1.32l5.65.06s.15-1.84-1.09-2.96Zm-4.42,1.75c.06-.19.25-.78.82-1.16.89-.6,1.91-.2,2.05-.14.87.36,1.2,1.14,1.27,1.3h-4.14Z"/><polygon class="cls-2" points="38.19 28.2 38.14 37.1 37.14 37.1 37.14 38.28 40.44 38.28 40.44 37.06 39.42 37.08 39.39 29.58 44.59 38.28 45.81 38.28 45.71 28.2 46.83 28.2 46.83 26.97 43.48 26.97 43.52 28.24 44.52 28.25 44.56 35.72 39.28 26.97 37.14 26.97 37.14 28.17 38.19 28.2"/><path class="cls-4" d="m12.42,43.02c-.2-.15-.28-.39-.21-.62.04-.12.12-.2.22-.28.03-.02.07-.04.07-.08h0c-.02-.07-.04-.13-.06-.2-.01-.06-.06-.08-.12-.08-.25.02-.56-.15-.57-.51,0-.07,0-.15.04-.22.02-.04.03-.1-.03-.13-.02-.02-.05-.03-.07-.05-.04-.03-.07-.07-.13-.08-.06,0-.08.04-.12.07-.34.19-.68.08-.82-.27,0-.02,0-.03,0-.05-.02-.05-.04-.09-.11-.08-.05,0-.1,0-.14,0-.07,0-.11.03-.13.1-.1.37-.55.52-.84.29-.07-.06-.1-.06-.19,0-.1.07-.16.11-.11.26.07.22,0,.43-.19.57-.1.08-.22.12-.36.1-.06,0-.1.02-.12.07-.01.04-.03.08-.04.12-.03.09-.03.11.06.18.31.24.33.69,0,.89-.07.04-.08.07-.05.17,0,.03.02.06.03.09.03.09.05.11.15.11.24,0,.49.15.54.41.02.11.03.22-.02.32-.03.06-.02.11.03.15.01,0,.03.02.04.03.13.1.13.09.28,0,.31-.17.69-.09.81.32,0,0,0,0,0,0,.05.14.17.08.26.09.07,0,.11-.03.12-.11.04-.23.34-.43.58-.39.1.02.2.05.28.12.04.04.09.05.14,0,.04-.03.08-.06.13-.09.06-.04.05-.09.03-.14-.09-.29.01-.56.28-.69.07-.04.16-.04.25-.04.07,0,.11-.02.13-.09,0-.03.02-.06.03-.08.03-.1.03-.13-.06-.19Zm-.84-.28c-.11.78-.94,1.2-1.61.91-.74-.33-.94-1.29-.37-1.88.2-.2.44-.31.72-.34h0c.13,0,.26,0,.38.03.55.14.94.69.86,1.28Z"/><path class="cls-2" d="m7.34,41.16v-.39h.46v1.15h-.47c-.12-.23-.28-.41-.48-.54s-.43-.19-.67-.19-.45.06-.63.19c-.19.12-.33.29-.43.5-.1.21-.16.43-.16.67s.05.48.16.68.26.38.45.5c.19.13.4.19.63.19.29,0,.54-.09.76-.26.22-.17.38-.42.48-.74l.46.24c-.12.4-.34.71-.65.93-.31.22-.68.33-1.1.33-.35,0-.65-.08-.92-.25-.27-.17-.48-.39-.63-.67s-.22-.59-.22-.92c0-.36.08-.69.23-.97.15-.28.36-.5.63-.66.27-.16.58-.23.92-.23.23,0,.45.04.64.12.2.08.38.19.54.34Z"/><path class="cls-2" d="m15.22,41.21h-.51v-.45h1.47v.45h-.53v3.17h-.56l-1.72-3.06v2.58h.51v.45h-1.47v-.45h.51v-2.69h-.51v-.45h1.22l1.57,2.78v-2.34Z"/><path class="cls-2" d="m18.31,40.99v-.24h.44v1.09h-.44v-.25c-.19-.28-.44-.42-.76-.42-.2,0-.35.04-.45.12-.1.08-.16.19-.16.34s.05.25.15.33c.1.07.25.14.45.19l.42.11c.27.07.47.17.62.28.14.12.24.24.28.37.04.13.07.28.07.44,0,.32-.1.58-.3.77-.2.19-.47.29-.81.29s-.62-.12-.89-.36v.3h-.45v-1.3h.45v.32c.21.39.49.59.84.59.2,0,.36-.05.47-.16s.17-.25.17-.44c0-.26-.18-.43-.54-.53l-.45-.13c-.32-.09-.56-.22-.71-.37s-.23-.36-.23-.62c0-.32.09-.56.28-.73.19-.17.44-.26.77-.26.29,0,.55.09.8.28Z"/><path class="cls-2" d="m21.71,42.08v-.86h-.74v2.69h.47v.45h-1.46v-.45h.46v-2.69h-.73v.86h-.44v-1.31h2.9v1.31h-.44Z"/><path class="cls-2" d="m25.16,41.71c0,.23-.07.42-.19.58-.13.16-.31.26-.54.32l.63,1.29h.44v.45h-.8l-.79-1.67h-.5v1.22h.46v.45h-1.48v-.45h.48v-2.69h-.48v-.45h1.49c.46,0,.79.08,1,.23.2.15.31.39.31.71Zm-.56,0c0-.17-.05-.29-.16-.37-.1-.08-.27-.12-.5-.12h-.55v1.02h.52c.23,0,.41-.04.52-.12.11-.08.17-.22.17-.41Z"/><path class="cls-2" d="m26.64,41.21v1.82c0,.32.06.56.18.71.12.15.3.22.54.22s.42-.07.55-.22c.13-.15.19-.38.19-.7v-1.83h-.42v-.45h1.4v.45h-.45v1.88c0,.43-.11.75-.32.98s-.53.34-.95.34-.74-.11-.95-.33c-.21-.22-.32-.56-.32-1.01v-1.85h-.44v-.45h1.41v.45h-.42Z"/><path class="cls-2" d="m32.4,41.16v-.39h.46v1.15h-.47c-.12-.23-.28-.41-.48-.54s-.43-.19-.67-.19-.45.06-.63.19c-.19.12-.33.29-.43.5-.1.21-.16.43-.16.67s.05.48.16.68.26.38.45.5c.19.13.4.19.63.19.29,0,.54-.09.76-.26.22-.17.38-.42.48-.74l.46.24c-.12.4-.34.71-.65.93-.31.22-.68.33-1.1.33-.35,0-.65-.08-.92-.25-.27-.17-.48-.39-.63-.67s-.22-.59-.22-.92c0-.36.08-.69.23-.97.15-.28.36-.5.63-.66.27-.16.58-.23.92-.23.23,0,.45.04.64.12.2.08.38.19.54.34Z"/><path class="cls-2" d="m35.81,42.08v-.86h-.74v2.69h.47v.45h-1.46v-.45h.46v-2.69h-.73v.86h-.44v-1.31h2.9v1.31h-.44Z"/><path class="cls-2" d="m37.5,41.21v2.69h.39v.45h-1.32v-.45h.39v-2.69h-.39v-.45h1.32v.45h-.39Z"/><path class="cls-2" d="m41.99,42.55c0,.36-.08.69-.24.97-.16.28-.38.5-.67.66s-.61.23-.97.23-.67-.08-.95-.24-.49-.38-.65-.67c-.15-.28-.23-.6-.23-.96s.08-.67.24-.95c.16-.28.37-.49.65-.65s.59-.23.95-.23.69.08.98.24c.28.16.5.38.66.66.16.28.23.59.23.94Zm-1.85,1.38c.25,0,.46-.06.66-.19s.34-.3.45-.51.16-.44.16-.68-.06-.47-.17-.68c-.11-.21-.27-.38-.46-.5-.2-.12-.42-.18-.67-.18s-.46.06-.64.18c-.19.12-.33.28-.43.49-.1.21-.15.44-.15.69,0,.27.05.51.15.72.1.21.25.37.44.49.19.12.41.18.67.18Z"/><path class="cls-2" d="m45.14,41.21h-.51v-.45h1.47v.45h-.53v3.17h-.56l-1.72-3.06v2.58h.51v.45h-1.47v-.45h.51v-2.69h-.51v-.45h1.22l1.57,2.78v-2.34Z"/><rect class="cls-2" x="4.37" y="46.15" width="20.23" height="3.44"/><text class="cls-5" transform="translate(6.2 48.93)"><tspan x="0" y="0">Plan Better</tspan></text><rect class="cls-3" x="24.93" y="46.15" width="20.23" height="3.44"/><text class="cls-6" transform="translate(25.49 48.98)"><tspan x="0" y="0">Build Better</tspan></text></svg>