<?xml version="1.0" encoding="UTF-8"?><svg id="Layer_1" xmlns="http://www.w3.org/2000/svg" xmlns:xlink="http://www.w3.org/1999/xlink" width="275" height="430" viewBox="0 0 275 430"><defs><style>.cls-1,.cls-2,.cls-3{fill:none;}.cls-2,.cls-4,.cls-5{isolation:isolate;}.cls-6{fill:#f0592a;}.cls-7{fill:#f0592b;}.cls-8,.cls-4,.cls-5{fill:#fff;}.cls-9{fill:#ea682f;}.cls-10{fill:#6ab4c8;}.cls-11{fill:#6b5353;}.cls-12{fill:#02204f;}.cls-13{fill:#31c426;}.cls-14{fill:#ccd8d7;}.cls-15{fill:#df8b44;}.cls-16{fill:#d0dcda;}.cls-17{fill:#dbdad7;}.cls-18{fill:#101d23;}.cls-19{fill:#17890e;}.cls-20{fill:#1c3c45;}.cls-21{fill:#564747;}.cls-22{fill:#33924a;}.cls-23{fill:#44afad;}.cls-24{fill:#756868;}.cls-4{font-size:1.53px;}.cls-4,.cls-5{font-family:Rockwell-Regular, Rockwell;}.cls-5{font-size:1.59px;}.cls-3{clip-path:url(#clippath);}</style><clipPath id="clippath"><ellipse class="cls-1" cx="139.9" cy="252.01" rx="236.61" ry="322.89"/></clipPath></defs><g class="cls-3"><rect class="cls-10" x="14.54" y="142.58" width="143.33" height="259.67"/><rect class="cls-20" x="4.05" y="148.91" width="164.32" height="6.88"/><rect class="cls-20" x="4.05" y="162.1" width="164.32" height="6.88"/><rect class="cls-16" x="99.65" y="192.48" width="42.55" height="45.46"/><rect class="cls-8" x="119.2" y="192.48" width="3.43" height="45.46"/><rect class="cls-8" x="99.65" y="220.38" width="42.55" height="2.85"/><rect class="cls-20" x="91.58" y="185.13" width="58.68" height="7.34"/><rect class="cls-16" x="99.65" y="255.53" width="42.55" height="45.49"/><rect class="cls-8" x="119.2" y="255.53" width="3.43" height="45.49"/><rect class="cls-8" x="99.65" y="283.46" width="42.55" height="2.85"/><rect class="cls-20" x="91.58" y="248.22" width="58.68" height="7.34"/><rect class="cls-16" x="30.21" y="192.48" width="42.55" height="45.46"/><rect class="cls-8" x="49.79" y="192.48" width="3.43" height="45.46"/><rect class="cls-8" x="30.21" y="220.38" width="42.55" height="2.85"/><rect class="cls-20" x="22.13" y="185.13" width="58.68" height="7.34"/><rect class="cls-16" x="30.21" y="255.53" width="42.55" height="45.49"/><rect class="cls-8" x="49.79" y="255.53" width="3.43" height="45.49"/><rect class="cls-8" x="30.21" y="283.46" width="42.55" height="2.85"/><rect class="cls-20" x="22.13" y="248.22" width="58.68" height="7.34"/><rect class="cls-23" x="109.69" y="339.9" width="41.09" height="57.21"/><rect class="cls-15" x="69.33" y="334.76" width="33.74" height="67.49"/><path class="cls-12" d="m227.81,372.3c.31-7.8,3.55-35.12,3.55-35.12,3.7,7.1,10.68,23.46,14.78,35.12h43.41c-.92-1.47-1.62-2.48-2.08-2.91-1.07-.98,1.77-7.4,1.07-9.02s-3.21-3.55,0-8.05-1.8-1.62-4.28-7.4c-2.51-5.81-5.02-16.12-9.3-35.76-4.28-19.64-13.22-55.4-14.65-58.31-1.44-2.91-66.57-26.16-66.57-26.16-3.61,4.77-10.98,20.68-12.3,22s-7.86,5.08-7.86,5.08c0,0-.58-.21-1.5-.55l-9.67,121.06h65.41v.03h-.01Z"/><path class="cls-12" d="m35.71,362.33c-.7,1.62,2.14,8.05,1.07,9.02-.21.21-.49.52-.8.98h42.83c4.13-11.47,10.59-26.49,14.07-33.19,0,0,2.81,23.59,3.46,33.19h70.39l-14.56-119.13c-.92.34-1.5.55-1.5.55,0,0-7.53-3.46-8.87-4.8-1.32-1.35-7.07-21.81-6.76-23.95,0,0-69.66,24.9-71.07,27.81-1.44,2.91-10.37,38.67-14.65,58.31-4.28,19.64-6.79,29.95-9.3,35.76s-7.5,2.91-4.28,7.4c3.21,4.5.7,6.46,0,8.05h-.03Z"/><path class="cls-24" d="m193.57,228.3c-1.38-10.74-1.96-27.26-.7-39.56.76-7.46-25.39,8.47-30.32,8.47-5.57,0-28.91-12.82-27.38-5.08,2.51,12.54.28,24.44-.21,33.01,5.05,1.22,7.71,18.39,5.84,20.44,1.44,3.61,2.88,6.76,3.98,8.35,5.84,8.23,10.8,5.23,17.74,5.23s14.07-1.96,21.05-9.85c4.47-5.05,10.55-16.52,9.97-20.99l.03-.03h0Z"/><path class="cls-11" d="m131.65,180.48c0,2.94-2.39,5.32-5.29,5.32h0c-2.94,0-4.31-1.01-4.31-12.21l-1.8-7.22c0-5.02,4.07,1.19,7.01,1.19h1.59c2.94,0,2.81.18,2.81,3.09v9.82h0Z"/><path class="cls-11" d="m190.94,180.48c0,2.94,2.39,5.32,5.32,5.32h0c2.94,0,4.31-1.01,4.31-12.21l1.8-7.22c0-5.02-4.07,1.19-7.01,1.19h-1.59c-2.94,0-2.81.18-2.81,3.09v9.82h-.03,0Z"/><path class="cls-21" d="m193.42,225.12c-1.44-12.02-1.84-24.08-.55-36.38.76-7.46-25.39,8.47-30.32,8.47-5.57,0-28.91-12.82-27.38-5.08,1.07,5.32,1.16,10.98.92,16.43l41.09,55.71c7.71-.98-2.2.21.7-3.09,4.47-5.05,16.34-29.4,15.54-36.04v-.03h0Z"/><path class="cls-11" d="m135.45,140.35c-6.88,5.87-4.8,20.04-4.8,29.83v17.01c0,4.93-.37,10.65,1.59,14.81,3.61,7.65,12.63,15.17,20.62,18.02,3.24,1.16,5.81-.73,9.42-.8l-.31-81.1c-7.92-.09-21.11-2.45-26.52,2.2v.03h0Z"/><path class="cls-11" d="m194.34,170.17c0-10.86,1.77-25.06-6.39-30.84-5.17-3.67-18.63-1.19-25.42-1.19h-5.17l4.56,81.1h.61c3.73,0,10.49,1.8,13.83.61,6.39-6.39,11.23-8.99,16.83-17.01,1.93-4.13,1.19-10.74,1.19-15.63v-17.01l-.03-.03h-.01Z"/><path class="cls-1" d="m166.13,245.71c.8.21,1.44.55,2.08.95.8-.49,1.59-1.01,2.36-1.5l-4.44.55Z"/><path class="cls-1" d="m156.71,245.25c.61.52,1.25,1.04,1.87,1.5.4-.28.83-.52,1.28-.7-.95-.18-2.02-.46-3.12-.8h-.03Z"/><path class="cls-12" d="m172.8,372.3l14.2-100.77,6.82-29.06c-.92,3.18-.03-18.05-.03-18.05-.76.52-31.17,22.46-31.97,22.94,1.28.86,2.6,109.28,3.27,124.94h7.74-.03Z"/><path class="cls-12" d="m156.89,372.3h8.6c-.15-32.06-1.41-125.61-.31-126.35-.8-.49-29.4-20.44-30.16-20.93,0,0,.37,20.62-.55,17.44l6.82,29.06,15.6,100.77h0Z"/><path class="cls-12" d="m167.45,372.3v-127.45s-1.22.4-2.69.4c-1.19,0-2.69-.4-2.69-.4v127.45h5.38Z"/><path class="cls-8" d="m164.05,261.1c1.53.34,3.06-.61,3.43-2.17.34-1.53-.61-3.06-2.17-3.43-1.53-.34-3.06.61-3.43,2.17-.34,1.53.61,3.09,2.17,3.43"/><path class="cls-14" d="m164.08,257.91c.28.06.58-.12.64-.4.06-.31-.12-.58-.4-.64s-.58.12-.64.4.12.58.4.64"/><path class="cls-14" d="m163.74,259.41c.31.06.58-.12.64-.4.06-.31-.12-.58-.4-.64s-.58.12-.64.4.12.58.4.64"/><path class="cls-14" d="m165.49,258.22c.28.06.58-.12.64-.4.06-.31-.12-.58-.4-.64-.31-.06-.58.12-.64.4-.06.31.12.58.4.64"/><path class="cls-14" d="m165.15,259.72c.28.06.58-.12.64-.4s-.12-.58-.4-.64-.58.12-.64.4.12.58.4.64"/><path class="cls-8" d="m164.05,291.63c1.53.34,3.06-.61,3.43-2.17.34-1.53-.61-3.06-2.17-3.43-1.53-.34-3.06.61-3.43,2.17-.34,1.53.61,3.06,2.17,3.43"/><path class="cls-14" d="m164.08,288.45c.28.06.58-.12.64-.4s-.12-.58-.4-.64-.58.12-.64.4c-.06.31.12.58.4.64"/><path class="cls-14" d="m163.74,289.95c.31.06.58-.12.64-.4s-.12-.58-.4-.64-.58.12-.64.4c-.06.31.12.58.4.64"/><path class="cls-14" d="m165.49,288.75c.28.06.58-.12.64-.4.06-.31-.12-.58-.4-.64-.31-.06-.58.12-.64.4-.06.31.12.58.4.64"/><path class="cls-14" d="m165.15,290.25c.28.06.58-.12.64-.4s-.12-.58-.4-.64-.58.12-.64.4.12.58.4.64"/><path class="cls-8" d="m164.05,322.16c1.53.34,3.06-.61,3.43-2.17.34-1.53-.61-3.06-2.17-3.43-1.53-.34-3.06.61-3.43,2.17-.34,1.53.61,3.06,2.17,3.43"/><path class="cls-14" d="m164.08,318.98c.28.06.58-.12.64-.43.06-.28-.12-.58-.4-.64s-.58.12-.64.4.12.58.4.64"/><path class="cls-14" d="m163.74,320.45c.31.06.58-.12.64-.4s-.12-.58-.4-.64-.58.12-.64.4.12.58.4.64"/><path class="cls-14" d="m165.49,319.28c.28.06.58-.12.64-.4s-.12-.58-.4-.64c-.31-.06-.58.12-.64.4s.12.58.4.64"/><path class="cls-14" d="m165.15,320.78c.28.06.58-.12.64-.4.06-.31-.12-.58-.4-.64s-.58.12-.64.4c-.06.31.12.58.4.64"/><path class="cls-8" d="m164.05,352.69c1.53.34,3.06-.61,3.43-2.17.34-1.53-.61-3.06-2.17-3.43-1.53-.34-3.06.61-3.43,2.17-.34,1.53.61,3.06,2.17,3.43"/><path class="cls-14" d="m164.08,349.51c.28.06.58-.12.64-.4.06-.31-.12-.58-.4-.64s-.58.12-.64.4c-.06.31.12.58.4.64"/><path class="cls-14" d="m163.74,350.98c.31.06.58-.12.64-.4s-.12-.58-.4-.64-.58.12-.64.4c-.06.31.12.58.4.64"/><path class="cls-14" d="m165.49,349.82c.28.06.58-.12.64-.4.06-.31-.12-.58-.4-.64-.31-.06-.58.12-.64.4s.12.58.4.64"/><path class="cls-14" d="m165.15,351.31c.28.06.58-.12.64-.4.06-.31-.12-.58-.4-.64s-.58.12-.64.4.12.58.4.64"/><polygon class="cls-12" points="135.05 224.93 150.96 254.98 164.42 245.52 135.05 224.93"/><polygon class="cls-12" points="193.66 224.41 178.15 254.98 164.72 245.52 193.66 224.41"/><path class="cls-18" d="m124.46,141.63c0,1.38-3.37,9.06-1.25,14.2,1.99,4.86,4.31,9.67,4.56,15.02.12,2.81,1.84,4.34,3.85,6.18-.37-3.24-.15-5.45-.37-8.38-.28-3.73-.24-7.92,2.6-10.62,1.84-1.71,2.33-3.7,1.96-6.06-.18-1.22-.34-2.45-.46-3.64-.64-5.41,1.32-8.72,6.73-9.82,3.76-.76,15.08,3.61,18.94,3.61,8.87.03,10.37-4.13,19.21-3.95.8,0,1.59,0,2.39.06,3.82.34,6.21,2.63,6.61,6.46.12,1.35.24,2.81-.15,4.1-1.32,4.37-.21,7.98,2.75,11.38,2.33,2.66,2.14,6.61,1.93,10.16-.18,2.48.67,4.28.43,6.76.21.09.4.18.58.24.76-1.68,1.74-3.33,2.17-5.08.98-3.98,1.62-8.05,2.48-12.05,1.56-7.07,2.14-7.86.86-15.11-1.1-6.12-2.63-17.93-9.42-19.89-8.02-.73-15.2-4.01-19.4-3.89-44.7,1.56-47.02,6.55-47.02,20.37l.03-.06h-.01Z"/><path class="cls-9" d="m112.23,276.7c-17.68,0-35.33-6.12-53.02-6.12v153.3c17.68,0,35.33,6.12,53.02,6.12v-153.3Z"/><path class="cls-8" d="m112.23,281.75c-16.49,0-33.01-5.35-49.5-6.06v143.21c16.49.7,33.01,6.06,49.5,6.06v-143.21Z"/><path class="cls-9" d="m161.82,270.58c-16.52,0-33.07,6.12-49.59,6.12v153.27c16.52,0,33.07-6.09,49.59-6.09v-153.3h0Z"/><path class="cls-17" d="m161.82,275.63c-16.52,0-33.53,6.09-50.05,6.09v143.21c16.52,0,33.53-6.12,50.05-6.12v-143.21.03h0Z"/><path class="cls-9" d="m211.62,276.7c-16.61,0-33.19-6.12-49.81-6.12v153.3c16.61,0,33.19,6.12,49.81,6.12v-153.3Z"/><path class="cls-8" d="m212.94,281.75c-16.52,0-35-6.09-51.55-6.12v143.24c16.52.06,35,6.12,51.55,6.12v-143.24Z"/><path class="cls-9" d="m211.62,276.7v153.3c17.81,0,35.58-6.15,53.38-6.15v-153.3c-17.81,0-35.58,6.12-53.38,6.12v.03h0Z"/><path class="cls-17" d="m261.49,418.89c-16.58.7-33.74,6-50.33,6.03v-143.21c16.58,0,33.74-5.32,50.33-6.03v143.21Z"/><path class="cls-13" d="m139.88,110.98c-13.28,7.59-22.27,26.16-22.33,42.52h44.67l-.49-52.04c-8.63,0-16.4,3.67-21.87,9.48l.03.03h0Z"/><path class="cls-13" d="m183.6,110.98c13.28,7.59,22.27,26.16,22.33,42.52h-44.18v-52.01c8.63,0,16.4,3.67,21.87,9.48h-.03.01Z"/><polygon class="cls-19" points="135.38 113.94 140.19 110.58 143.92 140.5 135.38 113.94"/><polygon class="cls-19" points="187.39 113.33 182.59 110 178.86 139.92 187.39 113.33"/><path class="cls-19" d="m187.48,149.89c0,1.32-1.07,2.88-2.42,2.88h-23.5c-1.32,0-2.42-1.56-2.42-2.88v.49c0-1.32,1.07-2.91,2.42-2.91h23.5c1.32,0,2.42,1.56,2.42,2.91v-.49Z"/><polygon class="cls-19" points="116.45 161.85 116.45 146.37 122.84 146.37 127.12 152.25 162.37 152.25 162.37 162.4 116.45 161.85"/><polygon class="cls-19" points="207.8 161.85 207.8 146.37 201.37 146.37 197.09 152.25 161.85 152.25 161.85 162.4 207.8 161.85"/><polygon class="cls-1" points="154.69 137.22 162.73 132.64 174.76 141.57 162.61 133.52 154.69 137.22"/><polygon class="cls-1" points="150.83 138.94 150.83 144.9 150.1 144.9 150.1 145.61 155.18 145.61 155.18 143.92 154.32 143.96 154.32 144.84 151.66 144.84 151.66 142.27 152.73 142.27 152.73 143.13 153.5 143.13 153.53 140.56 152.73 140.59 152.73 141.45 151.66 141.45 151.66 138.94 154.35 138.94 154.35 139.86 155.18 139.83 155.18 138.11 150.1 138.11 150.1 138.91 150.83 138.94"/><path class="cls-1" d="m159.31,145.09v-1.5c-.12-.58-.89-.67-.92-.7.7-.37,1.13-1.19.89-1.84-.18-.49-.67-.8-1.22-.86l-2.42-.06v.55h.52v4.31h-.52v.58h1.68v-.58h-.55v-1.87h1.01s.24,0,.37.06c.61.37.58.4.61.49v1.87h1.1v-.55h-.52l-.03.09h0Zm-2.54-2.51v-1.84c.4,0,.8,0,1.19.03.43.06.76.4.8.76.06.46-.31.95-.89,1.01h-1.1v.03h0Z"/><polygon class="cls-1" points="160.32 140.16 160.32 140.74 160.84 140.74 160.81 145.03 160.32 145.03 160.32 145.64 161.94 145.64 161.94 145.06 161.42 145.06 161.45 140.74 161.97 140.74 161.97 140.16 160.32 140.16"/><path class="cls-6" d="m165.21,142.64c-.46-.43-1.01-.4-1.16-.4s-.67,0-1.1.43c-.58.55-.52,1.32-.52,1.41,0,0,.06.83.73,1.28.37.24.76.28.95.28.21,0,.58,0,.92-.18.06-.03.12-.09.15-.12.21-.15.37-.34.49-.49l-.55-.21s-.43.49-1.04.49c-.15,0-.58-.06-.86-.4-.18-.24-.21-.52-.21-.64h2.72s.06-.86-.52-1.41h0v-.03h0Zm-2.14.86s.12-.37.4-.55c.43-.31.92-.09.98-.06.43.18.58.55.61.64h-2.02l.03-.03h0Z"/><polygon class="cls-7" points="166.74 140.74 166.71 145.06 166.22 145.06 166.22 145.64 167.81 145.64 167.81 145.03 167.32 145.06 167.32 141.42 169.83 145.64 170.41 145.64 170.38 140.74 170.93 140.74 170.93 140.16 169.28 140.16 169.31 140.77 169.8 140.77 169.83 144.38 167.26 140.16 166.22 140.16 166.22 140.74 166.74 140.74"/><path class="cls-22" d="m154.26,147.93s-.12-.18-.09-.31c0-.06.06-.09.09-.12,0,0,.03,0,.03-.03h0v-.09s0-.03-.06-.03c-.12,0-.28-.06-.28-.24v-.15h-.03s-.03-.03-.06-.03c0,0-.03,0-.06.03-.15.09-.34.03-.4-.12h0s0-.06-.06-.06h-.06s-.06,0-.06.06c-.06.18-.28.24-.4.15h-.09c-.06.03-.09.06-.06.12.03.09,0,.21-.09.28-.06.03-.09.06-.18.06,0,0-.06,0-.06.03v.15c.15.12.15.34,0,.43-.03,0-.03.03,0,.09v.03s0,.06.06.06c.12,0,.24.06.28.18v.21h0c.06.06.06.03.12,0,.15-.09.34-.03.4.15h0s.09.03.12.03.06,0,.06-.06c0-.12.15-.21.28-.18.06,0,.09,0,.12.06h.06s.03,0,.06-.03v-.06c-.03-.15,0-.28.12-.34h.12s.06,0,.06-.03v-.12h0l.06-.12Zm-.4-.12c-.06.37-.46.58-.76.43-.37-.15-.46-.61-.18-.92.09-.09.21-.15.34-.15h.18c.28.06.46.34.43.61h0v.03h0Z"/><path class="cls-7" d="m151.78,147.01v-.18h.21v.55h-.21s-.12-.18-.24-.28-.21-.09-.34-.09-.21,0-.31.09c-.09.06-.15.15-.21.24s-.09.21-.09.34,0,.24.09.34.12.18.21.24.18.09.31.09c.15,0,.28-.03.37-.12s.18-.21.24-.37l.21.12c-.06.18-.15.34-.31.46s-.34.15-.52.15-.31-.03-.46-.12-.24-.18-.31-.34-.09-.28-.09-.46.03-.34.12-.46c.06-.12.18-.24.31-.31s.28-.12.46-.12c.12,0,.21,0,.31.06.09.03.18.09.28.15h-.03v.02Z"/><path class="cls-7" d="m155.61,147.05h-.24v-.21h.7v.21h-.24v1.53h-.28l-.83-1.47v1.25h.24v.21h-.7v-.21h.24v-1.32h-.24v-.21h.58l.76,1.35v-1.13h.01Z"/><path class="cls-7" d="m157.11,146.95v-.12h.21v.52h-.21v-.12s-.21-.21-.37-.21c-.09,0-.18,0-.21.06-.06.03-.09.09-.09.15s0,.12.06.15.12.06.21.09l.21.06s.21.09.31.12c.06.06.12.12.12.18s.03.12.03.21c0,.15-.06.28-.15.37s-.21.15-.4.15-.31-.06-.43-.18v.15h-.21v-.64h.21v.15c.09.18.24.28.4.28.09,0,.18,0,.21-.09s.09-.12.09-.21c0-.12-.09-.21-.28-.24l-.21-.06c-.15-.03-.28-.09-.34-.18s-.12-.18-.12-.31c0-.15.03-.28.12-.37s.21-.12.37-.12.28.03.4.12h0l.06.09h0Z"/><path class="cls-7" d="m158.76,147.47v-.43h-.37v1.32h.21v.21h-.7v-.21h.21v-1.32h-.37v.43h-.21v-.64h1.41v.64h-.21.03,0Z"/><path class="cls-7" d="m160.41,147.29s-.03.21-.09.28c-.06.09-.15.12-.28.15l.31.61h.21v.21h-.4l-.4-.8h-.24v.58h.21v.21h-.7v-.21h.24v-1.32h-.24v-.21h.73c.21,0,.4.03.49.12.09.06.15.18.15.34h0v.03h0Zm-.28,0s0-.15-.09-.18c-.06-.03-.12-.06-.24-.06h-.28v.49h.24s.18,0,.24-.06c.06-.03.09-.09.09-.18h.04Z"/><path class="cls-7" d="m161.14,147.05v.89c0,.15,0,.28.09.34.06.06.15.09.28.09s.21-.03.28-.09.09-.18.09-.34v-.89h-.21v-.21h.67v.21h-.21v.92c0,.21-.06.37-.15.49s-.24.15-.46.15-.37-.06-.46-.15c-.09-.09-.15-.28-.15-.49v-.89h-.21v-.21h.67v.21h-.21v-.03h-.02Z"/><path class="cls-7" d="m163.93,147.01v-.18h.21v.55h-.21s-.12-.18-.24-.28-.21-.09-.34-.09-.21,0-.31.09c-.09.06-.15.15-.21.24s-.09.21-.09.34,0,.24.09.34.12.18.21.24.18.09.31.09c.15,0,.28-.03.37-.12s.18-.21.24-.37l.21.12c-.06.18-.15.34-.31.46-.15.09-.34.15-.52.15s-.31-.03-.46-.12-.24-.18-.31-.34-.09-.28-.09-.46.03-.34.12-.46c.06-.12.18-.24.31-.31.12-.09.28-.12.46-.12.12,0,.21,0,.31.06.09.03.18.09.28.15h-.03v.02Z"/><path class="cls-7" d="m165.58,147.47v-.43h-.37v1.32h.21v.21h-.7v-.21h.21v-1.32h-.37v.43h-.21v-.64h1.41v.64h-.21.03,0Z"/><path class="cls-7" d="m166.41,147.05v1.32h.18v.21h-.64v-.21h.18v-1.32h-.18v-.21h.64v.21h-.18Z"/><path class="cls-7" d="m168.58,147.69c0,.18-.03.34-.12.46-.09.12-.18.24-.34.31s-.31.12-.46.12-.34-.03-.46-.12-.24-.18-.31-.34c-.06-.12-.12-.31-.12-.46s.03-.34.12-.46c.09-.12.18-.24.31-.31s.28-.12.46-.12.34.03.49.12c.12.09.24.18.31.31s.12.28.12.46v.03Zm-.89.67s.21,0,.31-.09.15-.15.21-.24.09-.21.09-.34,0-.21-.09-.34c-.06-.09-.12-.18-.21-.24s-.21-.09-.34-.09-.21,0-.31.09c-.09.06-.15.12-.21.24-.06.09-.06.21-.06.34s0,.24.06.34.12.18.21.24.18.09.34.09h0Z"/><path class="cls-7" d="m170.11,147.05h-.24v-.21h.7v.21h-.24v1.53h-.28l-.83-1.47v1.25h.24v.21h-.7v-.21h.24v-1.32h-.24v-.21h.58l.76,1.35v-1.13h.01Z"/><rect class="cls-7" x="150.34" y="149.43" width="9.79" height="1.65"/><g class="cls-2"><text class="cls-5" transform="translate(151.23 150.78)"><tspan x="0" y="0">Plan Better</tspan></text></g><rect class="cls-1" x="160.32" y="149.43" width="9.79" height="1.65"/><g class="cls-2"><text class="cls-4" transform="translate(160.6 150.81)"><tspan x="0" y="0">Build Better</tspan></text></g></g></svg>