<?xml version="1.0" encoding="UTF-8"?><svg id="Layer_1" xmlns="http://www.w3.org/2000/svg" xmlns:xlink="http://www.w3.org/1999/xlink" width="110" height="110" viewBox="0 0 100 100"><defs><style>.cls-1,.cls-2,.cls-3{fill:none;}.cls-2,.cls-4,.cls-5{isolation:isolate;}.cls-6{fill:#f9bf18;}.cls-7{fill:#f89a21;}.cls-8{fill:#f7da55;}.cls-9{fill:#019b88;}.cls-10{fill:#039c89;}.cls-11{fill:#f0592a;}.cls-12{fill:#f0592b;}.cls-13,.cls-4,.cls-5{fill:#fff;}.cls-14{fill:#ea682f;}.cls-15{fill:#6ab4c8;}.cls-16{fill:#6b5353;}.cls-17{fill:#009b89;}.cls-18{fill:#b5ddc4;}.cls-19{fill:#ccd8d7;}.cls-20{fill:#df8b44;}.cls-21{fill:#d0dcda;}.cls-22{fill:#dbdad7;}.cls-23{fill:#101d23;}.cls-24{fill:#0cae96;}.cls-25{fill:#1c3c45;}.cls-26{fill:#564747;}.cls-27{fill:#33924a;}.cls-28{fill:#44afad;}.cls-29{fill:#756868;}.cls-4{font-size:.5px;}.cls-4,.cls-5{font-family:Rockwell-Regular, Rockwell;}.cls-5{font-size:.52px;}.cls-3{clip-path:url(#clippath);}</style><clipPath id="clippath"><path class="cls-18" d="m101.1,50c0,28.22-22.88,51.1-51.1,51.1S-1.1,78.22-1.1,50,21.78-1.1,50-1.1s51.1,22.88,51.1,51.1Z"/></clipPath></defs><path class="cls-18" d="m101.1,50c0,28.22-22.88,51.1-51.1,51.1S-1.1,78.22-1.1,50,21.78-1.1,50-1.1s51.1,22.88,51.1,51.1Z"/><g class="cls-3"><rect class="cls-15" x="9.71" y="18.46" width="46.85" height="84.88"/><rect class="cls-25" x="6.28" y="20.53" width="53.71" height="2.25"/><rect class="cls-25" x="6.28" y="24.84" width="53.71" height="2.25"/><rect class="cls-21" x="37.53" y="34.77" width="13.91" height="14.86"/><rect class="cls-13" x="43.92" y="34.77" width="1.12" height="14.86"/><rect class="cls-13" x="37.53" y="43.89" width="13.91" height=".93"/><rect class="cls-25" x="34.89" y="32.37" width="19.18" height="2.4"/><rect class="cls-21" x="37.53" y="55.38" width="13.91" height="14.87"/><rect class="cls-13" x="43.92" y="55.38" width="1.12" height="14.87"/><rect class="cls-13" x="37.53" y="64.51" width="13.91" height=".93"/><rect class="cls-25" x="34.89" y="52.99" width="19.18" height="2.4"/><rect class="cls-21" x="14.83" y="34.77" width="13.91" height="14.86"/><rect class="cls-13" x="21.23" y="34.77" width="1.12" height="14.86"/><rect class="cls-13" x="14.83" y="43.89" width="13.91" height=".93"/><rect class="cls-25" x="12.19" y="32.37" width="19.18" height="2.4"/><rect class="cls-21" x="14.83" y="55.38" width="13.91" height="14.87"/><rect class="cls-13" x="21.23" y="55.38" width="1.12" height="14.87"/><rect class="cls-13" x="14.83" y="64.51" width="13.91" height=".93"/><rect class="cls-25" x="12.19" y="52.99" width="19.18" height="2.4"/><rect class="cls-28" x="40.81" y="82.96" width="13.43" height="18.7"/><rect class="cls-20" x="27.62" y="81.28" width="11.03" height="22.06"/><path class="cls-17" d="m79.42,93.55c.1-2.55,1.16-11.48,1.16-11.48,1.21,2.32,3.49,7.67,4.83,11.48h14.19c-.3-.48-.53-.81-.68-.95-.35-.32.58-2.42.35-2.95-.23-.53-1.05-1.16,0-2.63,1.05-1.47-.59-.53-1.4-2.42-.82-1.9-1.64-5.27-3.04-11.69-1.4-6.42-4.32-18.11-4.79-19.06-.47-.95-21.76-8.55-21.76-8.55-1.18,1.56-3.59,6.76-4.02,7.19-.43.43-2.57,1.66-2.57,1.66,0,0-.19-.07-.49-.18l-3.16,39.57h21.38Z"/><path class="cls-10" d="m16.63,90.29c-.23.53.7,2.63.35,2.95-.07.07-.16.17-.26.32h14c1.35-3.75,3.46-8.66,4.6-10.85,0,0,.92,7.71,1.13,10.85h23.01l-4.76-38.94c-.3.11-.49.18-.49.18,0,0-2.46-1.13-2.9-1.57-.43-.44-2.31-7.13-2.21-7.83,0,0-22.77,8.14-23.23,9.09-.47.95-3.39,12.64-4.79,19.06-1.4,6.42-2.22,9.79-3.04,11.69-.82,1.9-2.45.95-1.4,2.42,1.05,1.47.23,2.11,0,2.63Z"/><path class="cls-29" d="m68.23,46.48c-.45-3.51-.64-8.91-.23-12.93.25-2.44-8.3,2.77-9.91,2.77-1.82,0-9.45-4.19-8.95-1.66.82,4.1.09,7.99-.07,10.79,1.65.4,2.52,6.01,1.91,6.68.47,1.18.94,2.21,1.3,2.73,1.91,2.69,3.53,1.71,5.8,1.71s4.6-.64,6.88-3.22c1.46-1.65,3.45-5.4,3.26-6.86Z"/><path class="cls-16" d="m47.99,30.85c0,.96-.78,1.74-1.73,1.74h0c-.96,0-1.41-.33-1.41-3.99l-.59-2.36c0-1.64,1.33.39,2.29.39h.52c.96,0,.92.06.92,1.01v3.21Z"/><path class="cls-16" d="m67.37,30.85c0,.96.78,1.74,1.74,1.74h0c.96,0,1.41-.33,1.41-3.99l.59-2.36c0-1.64-1.33.39-2.29.39h-.52c-.96,0-.92.06-.92,1.01v3.21Z"/><path class="cls-26" d="m68.18,45.44c-.47-3.93-.6-7.87-.18-11.89.25-2.44-8.3,2.77-9.91,2.77-1.82,0-9.45-4.19-8.95-1.66.35,1.74.38,3.59.3,5.37l13.43,18.21c2.52-.32-.72.07.23-1.01,1.46-1.65,5.34-9.61,5.08-11.78Z"/><path class="cls-16" d="m49.23,17.73c-2.25,1.92-1.57,6.55-1.57,9.75v5.56c0,1.61-.12,3.48.52,4.84,1.18,2.5,4.13,4.96,6.74,5.89,1.06.38,1.9-.24,3.08-.26l-.1-26.51c-2.59-.03-6.9-.8-8.67.72Z"/><path class="cls-16" d="m68.48,27.48c0-3.55.58-8.19-2.09-10.08-1.69-1.2-6.09-.39-8.31-.39-.05,0-1.64,0-1.69,0l1.49,26.51s.18,0,.2,0c1.22,0,3.43.59,4.52.2,2.09-2.09,3.67-2.94,5.5-5.56.63-1.35.39-3.51.39-5.11v-5.56Z"/><path class="cls-1" d="m59.26,52.17c.26.07.47.18.68.31.26-.16.52-.33.77-.49l-1.45.18Z"/><path class="cls-1" d="m56.18,52.02c.2.17.41.34.61.49.13-.09.27-.17.42-.23-.31-.06-.66-.15-1.02-.26Z"/><path class="cls-9" d="m61.44,93.55l4.64-32.94,2.23-9.5c-.3,1.04-.01-5.9-.01-5.9-.25.17-10.19,7.34-10.45,7.5.42.28.85,35.72,1.07,40.84h2.53Z"/><path class="cls-9" d="m56.24,93.55h2.81c-.05-10.48-.46-41.06-.1-41.3-.26-.16-9.61-6.68-9.86-6.84,0,0,.12,6.74-.18,5.7l2.23,9.5,5.1,32.94Z"/><path class="cls-24" d="m59.69,93.55v-41.66s-.4.13-.88.13c-.39,0-.88-.13-.88-.13v41.66h1.76Z"/><path class="cls-13" d="m58.58,57.2c.5.11,1-.2,1.12-.71.11-.5-.2-1-.71-1.12-.5-.11-1,.2-1.12.71-.11.5.2,1.01.71,1.12"/><path class="cls-19" d="m58.59,56.16c.09.02.19-.04.21-.13.02-.1-.04-.19-.13-.21-.09-.02-.19.04-.21.13-.02.09.04.19.13.21"/><path class="cls-19" d="m58.48,56.65c.1.02.19-.04.21-.13.02-.1-.04-.19-.13-.21-.09-.02-.19.04-.21.13-.02.09.04.19.13.21"/><path class="cls-19" d="m59.05,56.26c.09.02.19-.04.21-.13.02-.1-.04-.19-.13-.21-.1-.02-.19.04-.21.13-.02.1.04.19.13.21"/><path class="cls-19" d="m58.94,56.75c.09.02.19-.04.21-.13.02-.09-.04-.19-.13-.21-.09-.02-.19.04-.21.13-.02.09.04.19.13.21"/><path class="cls-13" d="m58.58,67.18c.5.11,1-.2,1.12-.71.11-.5-.2-1-.71-1.12-.5-.11-1,.2-1.12.71-.11.5.2,1,.71,1.12"/><path class="cls-19" d="m58.59,66.14c.09.02.19-.04.21-.13.02-.09-.04-.19-.13-.21-.09-.02-.19.04-.21.13-.02.1.04.19.13.21"/><path class="cls-19" d="m58.48,66.63c.1.02.19-.04.21-.13.02-.09-.04-.19-.13-.21-.09-.02-.19.04-.21.13-.02.1.04.19.13.21"/><path class="cls-19" d="m59.05,66.24c.09.02.19-.04.21-.13.02-.1-.04-.19-.13-.21-.1-.02-.19.04-.21.13-.02.1.04.19.13.21"/><path class="cls-19" d="m58.94,66.73c.09.02.19-.04.21-.13.02-.09-.04-.19-.13-.21-.09-.02-.19.04-.21.13-.02.09.04.19.13.21"/><path class="cls-13" d="m58.58,77.16c.5.11,1-.2,1.12-.71.11-.5-.2-1-.71-1.12-.5-.11-1,.2-1.12.71-.11.5.2,1,.71,1.12"/><path class="cls-19" d="m58.59,76.12c.09.02.19-.04.21-.14.02-.09-.04-.19-.13-.21-.09-.02-.19.04-.21.13-.02.09.04.19.13.21"/><path class="cls-19" d="m58.48,76.6c.1.02.19-.04.21-.13.02-.09-.04-.19-.13-.21-.09-.02-.19.04-.21.13-.02.09.04.19.13.21"/><path class="cls-19" d="m59.05,76.22c.09.02.19-.04.21-.13.02-.09-.04-.19-.13-.21-.1-.02-.19.04-.21.13-.02.09.04.19.13.21"/><path class="cls-19" d="m58.94,76.71c.09.02.19-.04.21-.13.02-.1-.04-.19-.13-.21-.09-.02-.19.04-.21.13-.02.1.04.19.13.21"/><path class="cls-13" d="m58.58,87.14c.5.11,1-.2,1.12-.71.11-.5-.2-1-.71-1.12-.5-.11-1,.2-1.12.71-.11.5.2,1,.71,1.12"/><path class="cls-19" d="m58.59,86.1c.09.02.19-.04.21-.13.02-.1-.04-.19-.13-.21-.09-.02-.19.04-.21.13-.02.1.04.19.13.21"/><path class="cls-19" d="m58.48,86.58c.1.02.19-.04.21-.13.02-.09-.04-.19-.13-.21-.09-.02-.19.04-.21.13-.02.1.04.19.13.21"/><path class="cls-19" d="m59.05,86.2c.09.02.19-.04.21-.13.02-.1-.04-.19-.13-.21-.1-.02-.19.04-.21.13-.02.09.04.19.13.21"/><path class="cls-19" d="m58.94,86.69c.09.02.19-.04.21-.13.02-.1-.04-.19-.13-.21-.09-.02-.19.04-.21.13-.02.09.04.19.13.21"/><polygon class="cls-24" points="49.1 45.38 54.3 55.2 58.7 52.11 49.1 45.38"/><polygon class="cls-24" points="68.26 45.21 63.19 55.2 58.8 52.11 68.26 45.21"/><path class="cls-23" d="m45.64,18.15c0,.45-1.1,2.96-.41,4.64.65,1.59,1.41,3.16,1.49,4.91.04.92.6,1.42,1.26,2.02-.12-1.06-.05-1.78-.12-2.74-.09-1.22-.08-2.59.85-3.47.6-.56.76-1.21.64-1.98-.06-.4-.11-.8-.15-1.19-.21-1.77.43-2.85,2.2-3.21,1.23-.25,4.93,1.18,6.19,1.18,2.9.01,3.39-1.35,6.28-1.29.26,0,.52,0,.78.02,1.25.11,2.03.86,2.16,2.11.04.44.08.92-.05,1.34-.43,1.43-.07,2.61.9,3.72.76.87.7,2.16.63,3.32-.06.81.22,1.4.14,2.21.07.03.13.06.19.08.25-.55.57-1.09.71-1.66.32-1.3.53-2.63.81-3.94.51-2.31.7-2.57.28-4.94-.36-2-.86-5.86-3.08-6.5-2.62-.24-4.97-1.31-6.34-1.27-14.61.51-15.37,2.14-15.37,6.66Z"/><path class="cls-14" d="m41.64,62.3c-5.78,0-11.55-2-17.33-2v50.11c5.78,0,11.55,2,17.33,2v-50.11Z"/><path class="cls-13" d="m41.64,63.95c-5.39,0-10.79-1.75-16.18-1.98v46.81c5.39.23,10.79,1.98,16.18,1.98v-46.81Z"/><path class="cls-14" d="m57.85,60.3c-5.4,0-10.81,2-16.21,2v50.1c5.4,0,10.81-1.99,16.21-1.99v-50.11Z"/><path class="cls-22" d="m57.85,61.95c-5.4,0-10.96,1.99-16.36,1.99v46.81c5.4,0,10.96-2,16.36-2v-46.81Z"/><path class="cls-14" d="m74.13,62.3c-5.43,0-10.85-2-16.28-2v50.11c5.43,0,10.85,2,16.28,2v-50.11Z"/><path class="cls-13" d="m74.56,63.95c-5.4,0-11.44-1.99-16.85-2v46.82c5.4.02,11.44,2,16.85,2v-46.81Z"/><path class="cls-14" d="m74.13,62.3v50.11c5.82,0,11.63-2.01,17.45-2.01v-50.11c-5.82,0-11.63,2-17.45,2Z"/><path class="cls-22" d="m90.43,108.78c-5.42.23-11.03,1.96-16.45,1.97v-46.81c5.42,0,11.03-1.74,16.45-1.97v46.81Z"/><path class="cls-8" d="m50.68,8.13c-4.34,2.48-7.28,8.55-7.3,13.9h14.6l-.16-17.01c-2.82,0-5.36,1.2-7.15,3.1Z"/><path class="cls-6" d="m64.97,8.13c4.34,2.48,7.28,8.55,7.3,13.9h-14.44V5.03c2.82,0,5.36,1.2,7.15,3.1Z"/><polygon class="cls-7" points="49.21 9.1 50.78 8 52 17.78 49.21 9.1"/><polygon class="cls-7" points="66.21 8.9 64.64 7.81 63.42 17.59 66.21 8.9"/><path class="cls-8" d="m66.24,20.85c0,.43-.35.94-.79.94h-7.68c-.43,0-.79-.51-.79-.94v.16c0-.43.35-.95.79-.95h7.68c.43,0,.79.51.79.95v-.16Z"/><polygon class="cls-7" points="43.02 24.76 43.02 19.7 45.11 19.7 46.51 21.62 58.03 21.62 58.03 24.94 43.02 24.76"/><polygon class="cls-7" points="72.88 24.76 72.88 19.7 70.78 19.7 69.38 21.62 57.86 21.62 57.86 24.94 72.88 24.76"/><polygon points="55.52 16.71 58.15 15.21 62.08 18.13 58.11 15.5 55.52 16.71"/><polygon points="54.26 17.27 54.26 19.22 54.02 19.22 54.02 19.45 55.68 19.45 55.68 18.9 55.4 18.91 55.4 19.2 54.53 19.2 54.53 18.36 54.88 18.36 54.88 18.64 55.13 18.64 55.14 17.8 54.88 17.81 54.88 18.09 54.53 18.09 54.53 17.27 55.41 17.27 55.41 17.57 55.68 17.56 55.68 17 54.02 17 54.02 17.26 54.26 17.27"/><path d="m57.03,19.28c0-.14,0-.2,0-.34,0-.03,0-.12,0-.15-.04-.19-.29-.22-.3-.23.23-.12.37-.39.29-.6-.06-.16-.22-.26-.4-.28l-.79-.02v.18h.17v1.41h-.17v.19h.55v-.19h-.18s0-.61,0-.61h.33s.08,0,.12.02c.2.12.19.13.2.16v.61h.36v-.18h-.17s0,0,0,0Zm-.83-.82v-.6c.13,0,.26,0,.39.01.14.02.25.13.26.25.02.15-.1.31-.29.33h-.36Z"/><polygon points="57.36 17.67 57.36 17.86 57.53 17.86 57.52 19.26 57.36 19.26 57.36 19.46 57.89 19.46 57.89 19.27 57.72 19.27 57.73 17.86 57.9 17.86 57.9 17.67 57.36 17.67"/><path class="cls-11" d="m58.96,18.48c-.15-.14-.33-.13-.38-.13-.05,0-.22,0-.36.14-.19.18-.17.43-.17.46,0,0,.02.27.24.42.12.08.25.09.31.09.07,0,.19,0,.3-.06.02-.01.04-.03.05-.04.07-.05.12-.11.16-.16l-.18-.07s-.14.16-.34.16c-.05,0-.19-.02-.28-.13-.06-.08-.07-.17-.07-.21h.89s.02-.28-.17-.46h0Zm-.7.28s.04-.12.13-.18c.14-.1.3-.03.32-.02.14.06.19.18.2.21h-.66Z"/><polygon class="cls-12" points="59.46 17.86 59.45 19.27 59.29 19.27 59.29 19.46 59.81 19.46 59.81 19.26 59.65 19.27 59.65 18.08 60.47 19.46 60.66 19.46 60.65 17.86 60.83 17.86 60.83 17.67 60.29 17.67 60.3 17.87 60.46 17.87 60.47 19.05 59.63 17.67 59.29 17.67 59.29 17.86 59.46 17.86"/><path class="cls-27" d="m55.38,20.21s-.04-.06-.03-.1c0-.02.02-.03.03-.04,0,0,.01,0,.01-.01h0s0-.02,0-.03c0,0,0-.01-.02-.01-.04,0-.09-.02-.09-.08,0-.01,0-.02,0-.03,0,0,0-.02,0-.02,0,0,0,0-.01,0,0,0-.01-.01-.02-.01,0,0-.01,0-.02.01-.05.03-.11.01-.13-.04h0s0-.02-.02-.02h-.02s-.02,0-.02.02c-.02.06-.09.08-.13.05-.01,0-.02,0-.03,0-.02.01-.03.02-.02.04.01.03,0,.07-.03.09-.02.01-.03.02-.06.02,0,0-.02,0-.02.01,0,0,0,.01,0,.02,0,.01,0,.02,0,.03.05.04.05.11,0,.14-.01,0-.01.01,0,.03,0,0,0,0,0,.01,0,.01,0,.02.02.02.04,0,.08.02.09.06,0,.02,0,.03,0,.05,0,0,0,.02,0,.02,0,0,0,0,0,0,.02.02.02.01.04,0,.05-.03.11-.01.13.05h0s.03.01.04.01c.01,0,.02,0,.02-.02,0-.04.05-.07.09-.06.02,0,.03,0,.04.02,0,0,.01,0,.02,0,0,0,.01,0,.02-.01,0,0,0-.01,0-.02-.01-.05,0-.09.04-.11.01,0,.03,0,.04,0,.01,0,.02,0,.02-.01,0,0,0,0,0-.01,0-.02,0-.02,0-.03h0Zm-.13-.04c-.02.12-.15.19-.25.14-.12-.05-.15-.2-.06-.3.03-.03.07-.05.11-.05h0s.04,0,.06,0c.09.02.15.11.14.2h0Z"/><path class="cls-12" d="m54.57,19.91v-.06h.07v.18h-.07s-.04-.06-.08-.09-.07-.03-.11-.03-.07,0-.1.03c-.03.02-.05.05-.07.08s-.03.07-.03.11,0,.08.03.11.04.06.07.08c.03.02.06.03.1.03.05,0,.09-.01.12-.04s.06-.07.08-.12l.07.04c-.02.06-.05.11-.1.15s-.11.05-.17.05c-.06,0-.1-.01-.15-.04s-.08-.06-.1-.11-.03-.09-.03-.15c0-.06.01-.11.04-.15.02-.04.06-.08.1-.1s.09-.04.15-.04c.04,0,.07,0,.1.02.03.01.06.03.09.05h0Z"/><path class="cls-12" d="m55.82,19.92h-.08v-.07h.23v.07h-.08v.5h-.09l-.27-.48v.41h.08v.07h-.23v-.07h.08v-.43h-.08v-.07h.19l.25.44v-.37h0Z"/><path class="cls-12" d="m56.31,19.89v-.04h.07v.17h-.07v-.04s-.07-.07-.12-.07c-.03,0-.06,0-.07.02-.02.01-.03.03-.03.05s0,.04.02.05c.02.01.04.02.07.03l.07.02s.07.03.1.04c.02.02.04.04.04.06,0,.02.01.04.01.07,0,.05-.02.09-.05.12-.03.03-.07.05-.13.05s-.1-.02-.14-.06v.05h-.07v-.21h.07v.05c.03.06.08.09.13.09.03,0,.06,0,.07-.03s.03-.04.03-.07c0-.04-.03-.07-.09-.08l-.07-.02c-.05-.01-.09-.03-.11-.06s-.04-.06-.04-.1c0-.05.01-.09.04-.12s.07-.04.12-.04c.05,0,.09.01.13.04h0Z"/><path class="cls-12" d="m56.85,20.06v-.14h-.12v.43h.07v.07h-.23v-.07h.07v-.43h-.12v.14h-.07v-.21h.46v.21h-.07Z"/><path class="cls-12" d="m57.39,20s-.01.07-.03.09c-.02.03-.05.04-.09.05l.1.2h.07v.07h-.13l-.13-.26h-.08v.19h.07v.07h-.23v-.07h.08v-.43h-.08v-.07h.24c.07,0,.13.01.16.04.03.02.05.06.05.11h0Zm-.09,0s0-.05-.03-.06c-.02-.01-.04-.02-.08-.02h-.09v.16h.08s.06,0,.08-.02c.02-.01.03-.03.03-.06Z"/><path class="cls-12" d="m57.63,19.92v.29c0,.05,0,.09.03.11.02.02.05.03.09.03s.07-.01.09-.03.03-.06.03-.11v-.29h-.07v-.07h.22v.07h-.07v.3c0,.07-.02.12-.05.16s-.08.05-.15.05-.12-.02-.15-.05c-.03-.03-.05-.09-.05-.16v-.29h-.07v-.07h.22v.07h-.07,0Z"/><path class="cls-12" d="m58.54,19.91v-.06h.07v.18h-.07s-.04-.06-.08-.09-.07-.03-.11-.03-.07,0-.1.03c-.03.02-.05.05-.07.08s-.03.07-.03.11,0,.08.03.11.04.06.07.08c.03.02.06.03.1.03.05,0,.09-.01.12-.04.03-.03.06-.07.08-.12l.07.04c-.02.06-.05.11-.1.15-.05.03-.11.05-.17.05-.06,0-.1-.01-.15-.04s-.08-.06-.1-.11-.03-.09-.03-.15c0-.06.01-.11.04-.15.02-.04.06-.08.1-.1.04-.03.09-.04.15-.04.04,0,.07,0,.1.02.03.01.06.03.09.05h0Z"/><path class="cls-12" d="m59.08,20.06v-.14h-.12v.43h.07v.07h-.23v-.07h.07v-.43h-.12v.14h-.07v-.21h.46v.21h-.07Z"/><path class="cls-12" d="m59.35,19.92v.43h.06v.07h-.21v-.07h.06v-.43h-.06v-.07h.21v.07h-.06Z"/><path class="cls-12" d="m60.06,20.13c0,.06-.01.11-.04.15-.03.04-.06.08-.11.1s-.1.04-.15.04-.11-.01-.15-.04-.08-.06-.1-.11c-.02-.04-.04-.1-.04-.15s.01-.11.04-.15c.03-.04.06-.08.1-.1s.09-.04.15-.04.11.01.16.04c.04.03.08.06.1.1s.04.09.04.15Zm-.29.22s.07,0,.1-.03.05-.05.07-.08.03-.07.03-.11,0-.07-.03-.11c-.02-.03-.04-.06-.07-.08-.03-.02-.07-.03-.11-.03s-.07,0-.1.03c-.03.02-.05.04-.07.08-.02.03-.02.07-.02.11,0,.04,0,.08.02.11.02.03.04.06.07.08.03.02.06.03.11.03h0Z"/><path class="cls-12" d="m60.56,19.92h-.08v-.07h.23v.07h-.08v.5h-.09l-.27-.48v.41h.08v.07h-.23v-.07h.08v-.43h-.08v-.07h.19l.25.44v-.37h0Z"/><rect class="cls-12" x="54.1" y="20.7" width="3.2" height=".54"/><g class="cls-2"><text class="cls-5" transform="translate(54.39 21.14)"><tspan x="0" y="0">Plan Better</tspan></text></g><rect x="57.36" y="20.7" width="3.2" height=".54"/><g class="cls-2"><text class="cls-4" transform="translate(57.45 21.15)"><tspan x="0" y="0">Build Better</tspan></text></g></g></svg>